<svg width="24" height="24" viewBox="0 0 24 24" fill="none" xmlns="http://www.w3.org/2000/svg">
<path fill-rule="evenodd" clip-rule="evenodd" d="M4 3H20V22H4V3ZM6 5V20H18V5H6Z" fill="#424242"/>
<path fill-rule="evenodd" clip-rule="evenodd" d="M7 6L7 2L9 2V6H7Z" fill="#424242"/>
<path fill-rule="evenodd" clip-rule="evenodd" d="M11 6V2L13 2V6H11Z" fill="#424242"/>
<path fill-rule="evenodd" clip-rule="evenodd" d="M17 10L11 10L11 8L17 8V10Z" fill="#424242"/>
<path fill-rule="evenodd" clip-rule="evenodd" d="M17 14L11 14L11 12L17 12V14Z" fill="#424242"/>
<path fill-rule="evenodd" clip-rule="evenodd" d="M17 18L11 18L11 16L17 16V18Z" fill="#424242"/>
<path fill-rule="evenodd" clip-rule="evenodd" d="M9 18L7 18L7 16L9 16L9 18Z" fill="#424242"/>
<path fill-rule="evenodd" clip-rule="evenodd" d="M9 14L7 14L7 12L9 12L9 14Z" fill="#424242"/>
<path fill-rule="evenodd" clip-rule="evenodd" d="M9 10L7 10L7 8L9 8L9 10Z" fill="#424242"/>
<path fill-rule="evenodd" clip-rule="evenodd" d="M15 6V2L17 2V6H15Z" fill="#424242"/>
</svg>
